<?xml version="1.0" standalone="no"?><!DOCTYPE svg PUBLIC "-//W3C//DTD SVG 1.1//EN" "http://www.w3.org/Graphics/SVG/1.1/DTD/svg11.dtd"><svg t="1571719432986" class="icon" viewBox="0 0 1024 1024" version="1.1" xmlns="http://www.w3.org/2000/svg" p-id="2490" xmlns:xlink="http://www.w3.org/1999/xlink" width="64" height="64"><defs><style type="text/css"></style></defs><path d="M945.192631 197.457164c0 0-89.717348-5.776563-136.621611-48.527227-49.027623-44.780903-55.337329-126.598326-55.337329-126.598326S631.320061 0.346901 507.28307 0.346901c-121.882931 0-245.950621 21.983687-245.950621 21.983687s-8.275477 82.285075-54.80521 124.786051c-49.340755 45.061288-137.152706 50.339502-137.152706 50.339502s-9.399067 160.448272 4.027733 299.756061c13.240559 137.123031 47.15395 272.652773 172.97047 375.35997 102.864786 84.003206 256.818133 151.080927 256.818133 151.080927s120.883161-52.712549 208.446449-110.046349c96.212272-63.206554 186.710402-149.488663 214.410278-313.77945C955.341782 426.045349 945.192631 197.457164 945.192631 197.457164zM676.351674 844.468091c-58.142212 38.027082-134.037762 73.674976-161.792896 86.294388L514.558777 508.581134 148.865981 508.581134c-0.309038-2.944052-0.605797-5.89015-0.890276-8.837272-11.147898-115.386984-3.342118-248.137427-3.342118-248.137427s72.668043-4.371564 113.545032-41.751916c38.502919-35.161824 45.373397-103.394858 45.373397-103.394858s102.709243-18.079774 203.606211-18.079774c2.480494 0 4.957919 0.013303 7.433296 0.033769l0 420.168502 348.966856 0.601704c-2.430352 25.684986-5.588275 51.206242-9.674337 75.438133C830.96096 720.586642 756.012991 792.159748 676.351674 844.468091z" p-id="2491"></path></svg>